<svg xmlns="http://www.w3.org/2000/svg" xmlns:xlink="http://www.w3.org/1999/xlink" width="26" height="26" viewBox="0 0 26 26"><defs><style>.a{fill:none;}.b{clip-path:url(#a);}.c{fill:rgba(255,255,255,0);}.d{fill:#fff156;}</style><clipPath id="a"><rect class="a" width="26" height="26"/></clipPath></defs><g class="b"><circle class="c" cx="13" cy="13" r="13"/><g transform="translate(4.411 5.514)"><path class="d" d="M17.459,32.637,12.417,27.6a.63.63,0,0,0-1.073.443v2.521H9.138q-7.021,0-8.616,3.968A8.967,8.967,0,0,0,0,37.807a11.825,11.825,0,0,0,1.251,4.441q.029.069.1.236t.133.3A1.119,1.119,0,0,0,1.615,43a.337.337,0,0,0,.276.168.288.288,0,0,0,.231-.1.367.367,0,0,0,.084-.246,2,2,0,0,0-.025-.261,2.037,2.037,0,0,1-.025-.231q-.049-.669-.049-1.211a8.382,8.382,0,0,1,.172-1.782,5.352,5.352,0,0,1,.478-1.364,3.425,3.425,0,0,1,.788-.995,4.623,4.623,0,0,1,1.039-.684,5.632,5.632,0,0,1,1.31-.419A12.486,12.486,0,0,1,7.41,35.66q.763-.059,1.728-.059h2.206v2.521a.627.627,0,0,0,1.073.443l5.042-5.042a.619.619,0,0,0,0-.886Z" transform="translate(0 -27.408)"/></g></g></svg>